<svg xmlns="http://www.w3.org/2000/svg" version="1.1" viewBox="250.00 250.00 524.00 524.00">
<path fill="#141a1f" d="
  M 612.87 429.52
  C 642.78 440.16 668.52 463.17 683.48 491.31
  Q 697.47 517.64 701.12 546.48
  C 702.13 554.47 702.33 563.09 702.32 571.41
  Q 702.19 650.85 702.26 728.85
  Q 702.26 732.12 700.35 735.27
  C 697.54 739.88 690.66 741.39 686.67 737.01
  Q 677.98 727.45 668.80 717.60
  Q 663.57 711.99 659.79 706.73
  Q 657.77 703.91 657.76 700.33
  Q 657.73 680.98 657.75 660.70
  Q 657.75 660.21 657.36 659.92
  Q 655.95 658.88 654.69 657.83
  Q 641.23 646.63 626.59 633.25
  C 610.95 618.95 596.39 602.59 583.72 586.05
  C 578.37 579.06 573.18 571.08 568.09 563.41
  Q 564.87 558.56 562.29 554.09
  Q 550.90 534.34 543.11 512.72
  Q 536.06 493.17 536.71 472.37
  Q 537.39 450.65 550.36 433.76
  C 556.99 425.13 565.98 418.62 576.12 414.98
  Q 580.86 413.28 585.95 411.74
  C 597.37 408.29 606.33 401.59 610.40 389.94
  C 615.77 374.54 611.39 354.64 595.18 347.22
  C 585.59 342.83 573.90 346.14 566.20 353.08
  C 558.43 360.07 556.79 367.73 557.02 377.69
  Q 557.25 387.54 557.18 395.88
  Q 557.16 399.07 555.24 403.43
  Q 551.11 412.87 545.44 420.23
  A 0.45 0.44 42.3 0 1 544.76 420.26
  C 538.97 413.93 532.75 403.75 532.59 394.89
  Q 532.44 386.55 532.58 377.77
  Q 532.70 370.90 531.21 366.10
  C 527.42 353.89 516.42 345.32 503.41 345.33
  Q 494.52 345.33 487.78 351.25
  C 479.86 358.20 476.55 368.02 476.81 378.35
  C 477.15 391.96 485.67 404.81 498.02 410.28
  Q 503.58 412.75 508.81 413.74
  C 515.32 414.98 524.52 416.77 524.10 425.67
  Q 524.01 427.60 521.97 431.89
  C 513.34 450.02 509.90 469.77 513.00 489.64
  Q 517.22 516.64 529.86 543.84
  Q 541.59 569.07 560.82 595.22
  Q 576.29 616.25 592.86 631.54
  C 597.09 635.45 598.86 641.97 593.37 645.86
  C 585.80 651.23 577.44 646.04 570.44 642.01
  Q 532.07 619.97 506.69 584.88
  Q 484.58 554.29 472.64 517.71
  C 464.62 493.15 462.15 467.62 465.06 441.67
  Q 466.15 431.99 470.47 422.11
  Q 470.73 421.52 470.29 421.06
  Q 461.67 412.18 456.34 397.61
  Q 453.14 388.86 453.33 377.96
  C 453.57 363.61 457.20 349.72 465.44 338.22
  Q 469.50 332.57 474.46 327.35
  A 0.24 0.23 -47.5 0 0 474.45 327.01
  Q 461.92 316.16 453.19 302.40
  C 447.70 293.74 445.26 277.72 458.16 274.65
  Q 463.98 273.26 468.34 278.48
  C 472.77 283.75 476.75 289.38 481.57 294.17
  Q 490.75 303.28 501.64 311.40
  A 1.11 1.11 0.0 0 0 502.90 311.45
  C 509.35 307.39 516.28 305.22 523.73 303.55
  C 544.59 298.88 567.48 300.51 585.95 311.13
  Q 586.49 311.44 586.99 311.06
  C 599.28 301.83 610.01 291.06 619.74 279.11
  Q 626.84 270.39 635.03 277.19
  C 642.83 283.67 640.06 295.44 635.59 303.38
  Q 628.30 316.37 615.81 326.32
  Q 614.85 327.09 615.69 327.98
  C 635.43 349.02 642.02 375.20 631.78 402.24
  Q 626.39 416.48 612.73 428.80
  Q 612.20 429.28 612.87 429.52
  Z"
/>
<path fill="#141a1f" d="
  M 408.56 666.95
  Q 410.47 670.91 414.76 670.92
  Q 508.83 671.04 610.96 670.87
  Q 618.66 670.86 621.71 672.26
  C 630.45 676.26 631.62 683.49 631.42 692.37
  Q 631.11 705.73 631.32 718.29
  Q 631.49 728.33 629.94 731.85
  Q 627.11 738.27 620.58 740.08
  Q 617.18 741.02 609.64 741.01
  Q 477.58 740.84 357.23 741.11
  C 348.15 741.13 339.15 741.65 334.77 732.03
  Q 333.52 729.28 333.51 721.93
  Q 333.47 704.17 333.49 683.50
  Q 333.64 494.00 333.56 304.50
  Q 333.56 299.50 333.61 294.56
  Q 333.68 288.23 335.09 285.17
  C 337.90 279.06 344.93 277.46 351.27 277.54
  Q 370.75 277.77 388.71 277.68
  Q 396.11 277.65 399.16 279.17
  Q 404.17 281.68 406.15 286.32
  Q 407.27 288.97 407.28 295.58
  Q 407.40 450.19 407.25 599.00
  C 407.23 620.55 407.51 642.04 407.47 663.72
  Q 407.47 664.68 408.56 666.95
  Z"
/>
<ellipse fill="#141a1f" cx="0.00" cy="0.00" transform="translate(507.60,376.31) rotate(74.6)" rx="12.44" ry="12.16"/>
<circle fill="#141a1f" cx="581.84" cy="376.28" r="12.39"/>
</svg>
